<svg id="svg" xmlns="http://www.w3.org/2000/svg" xmlns:xlink="http://www.w3.org/1999/xlink" width="400" height="399.2015968063872" viewBox="0, 0, 400,399.2015968063872"><g id="svgg"><path id="path0" d="M186.627 8.835 C 41.585 19.078,-39.573 182.260,39.832 303.992 C 120.428 427.552,305.133 416.795,371.231 284.692 C 437.007 153.230,333.440 -1.533,186.627 8.835 M215.940 69.238 C 323.062 83.347,368.889 212.421,294.383 290.175 C 231.071 356.246,121.117 338.477,81.437 255.761 C 42.638 174.882,96.603 78.015,185.429 69.096 C 187.844 68.853,190.449 68.583,191.218 68.495 C 194.244 68.148,211.634 68.671,215.940 69.238 M193.613 89.858 C 109.534 94.102,61.540 189.935,108.363 260.080 C 156.552 332.269,266.575 322.554,300.539 243.110 C 332.725 167.823,275.445 85.727,193.613 89.858 M205.389 179.393 C 235.768 196.903,236.559 197.397,236.997 199.142 C 237.617 201.612,237.905 201.421,205.378 220.190 C 172.576 239.118,173.257 238.788,171.227 236.757 L 170.060 235.590 170.060 199.800 L 170.060 164.010 171.269 162.801 C 173.233 160.838,173.019 160.734,205.389 179.393 " stroke="none" fill="#000000" fill-rule="evenodd"></path></g></svg>